<?xml version="1.0" encoding="UTF-8"?>
<!DOCTYPE svg PUBLIC "-//W3C//DTD SVG 1.1//EN" "http://www.w3.org/Graphics/SVG/1.1/DTD/svg11.dtd">
<svg xmlns="http://www.w3.org/2000/svg" version="1.1" width="2285px" height="1226px" style="shape-rendering:geometricPrecision; text-rendering:geometricPrecision; image-rendering:optimizeQuality; fill-rule:evenodd; clip-rule:evenodd" xmlns:xlink="http://www.w3.org/1999/xlink">
<g><path style="opacity:0.976" fill="#53575a" d="M 105.5,415.5 C 176.833,415.5 248.167,415.5 319.5,415.5C 319.5,433.833 319.5,452.167 319.5,470.5C 294.167,470.5 268.833,470.5 243.5,470.5C 243.5,578.167 243.5,685.833 243.5,793.5C 225.167,793.5 206.833,793.5 188.5,793.5C 188.5,685.833 188.5,578.167 188.5,470.5C 160.833,470.5 133.167,470.5 105.5,470.5C 105.5,452.167 105.5,433.833 105.5,415.5 Z"/></g>
<g><path style="opacity:0.971" fill="#f4821e" d="M 1597.5,465.5 C 1617.84,465.167 1638.18,465.5 1658.5,466.5C 1641.83,499.833 1625.17,533.167 1608.5,566.5C 1588.18,567.5 1567.84,567.833 1547.5,567.5C 1563.62,533.261 1580.29,499.261 1597.5,465.5 Z"/></g>
<g><path style="opacity:0.981" fill="#53575a" d="M 1361.5,512.5 C 1387.58,509.987 1412.58,513.987 1436.5,524.5C 1436.83,525 1437.17,525.5 1437.5,526C 1430.57,542.684 1422.74,558.85 1414,574.5C 1372.58,558.772 1337.58,567.772 1309,601.5C 1286.71,636.071 1287.05,670.404 1310,704.5C 1338.55,737.138 1373.22,745.805 1414,730.5C 1422.6,746.042 1430.44,762.042 1437.5,778.5C 1434.65,781.093 1431.32,782.926 1427.5,784C 1366.71,803.261 1314.54,789.761 1271,743.5C 1239.56,703.868 1230.56,659.535 1244,610.5C 1263.94,554.718 1303.11,522.051 1361.5,512.5 Z"/></g>
<g><path style="opacity:0.985" fill="#53575a" d="M 423.5,513.5 C 429.167,513.5 434.833,513.5 440.5,513.5C 440.5,531.5 440.5,549.5 440.5,567.5C 402.64,569.173 375.806,587.173 360,621.5C 356.739,629.876 354.739,638.543 354,647.5C 353.5,695.832 353.333,744.166 353.5,792.5C 335.5,792.5 317.5,792.5 299.5,792.5C 299.333,741.499 299.5,690.499 300,639.5C 307.765,583.449 337.598,544.282 389.5,522C 400.73,518.192 412.063,515.359 423.5,513.5 Z"/></g>
<g><path style="opacity:0.984" fill="#53575a" d="M 562.5,513.5 C 625.391,509.521 672.557,534.521 704,588.5C 712.267,605.232 717.267,622.898 719,641.5C 719.5,692.166 719.667,742.832 719.5,793.5C 701.5,793.5 683.5,793.5 665.5,793.5C 665.667,746.165 665.5,698.832 665,651.5C 662.39,615.101 644.557,589.267 611.5,574C 571.109,560.388 537.275,569.888 510,602.5C 487.712,637.066 488.045,671.399 511,705.5C 539.541,738.135 574.207,746.802 615,731.5C 623.604,747.042 631.437,763.042 638.5,779.5C 638.291,780.086 637.957,780.586 637.5,781C 588.489,801.393 541.822,797.06 497.5,768C 454.168,734.487 435.001,690.32 440,635.5C 448.566,582.284 477.4,544.784 526.5,523C 538.302,518.551 550.302,515.385 562.5,513.5 Z"/></g>
<g><path style="opacity:0.983" fill="#53575a" d="M 853.5,513.5 C 899.749,509.377 935.582,526.377 961,564.5C 968.753,578.178 973.42,592.845 975,608.5C 975.5,670.166 975.667,731.832 975.5,793.5C 957.5,793.5 939.5,793.5 921.5,793.5C 921.974,732.139 921.474,670.805 920,609.5C 913.442,582.622 896.276,568.622 868.5,567.5C 841.564,568.271 824.397,581.604 817,607.5C 815.522,669.468 815.022,731.468 815.5,793.5C 797.167,793.5 778.833,793.5 760.5,793.5C 760.333,734.499 760.5,675.499 761,616.5C 766.125,558.883 796.959,524.55 853.5,513.5 Z"/></g>
<g><path style="opacity:0.987" fill="#53575a" d="M 1066.5,513.5 C 1114.83,513.5 1163.17,513.5 1211.5,513.5C 1211.5,531.5 1211.5,549.5 1211.5,567.5C 1165.83,567.333 1120.17,567.5 1074.5,568C 1063.46,572.566 1059.96,580.399 1064,591.5C 1065.83,593.333 1067.67,595.167 1069.5,597C 1109.83,619.333 1150.17,641.667 1190.5,664C 1219.97,686.348 1228.8,715.181 1217,750.5C 1206.14,774.677 1187.64,788.844 1161.5,793C 1113.83,793.5 1066.17,793.667 1018.5,793.5C 1018.5,775.5 1018.5,757.5 1018.5,739.5C 1063.5,739.667 1108.5,739.5 1153.5,739C 1164.13,736.249 1168.63,729.415 1167,718.5C 1165.6,715.098 1163.43,712.264 1160.5,710C 1119.17,687 1077.83,664 1036.5,641C 1010.66,620.17 1002.16,593.67 1011,561.5C 1020.6,535.128 1039.1,519.128 1066.5,513.5 Z"/></g>
<g><path style="opacity:0.985" fill="#53575a" d="M 1876.5,513.5 C 1882.17,513.5 1887.83,513.5 1893.5,513.5C 1893.5,531.5 1893.5,549.5 1893.5,567.5C 1854.44,569.603 1827.28,588.603 1812,624.5C 1809.15,632.591 1807.48,640.924 1807,649.5C 1806.5,697.166 1806.33,744.832 1806.5,792.5C 1788.5,792.5 1770.5,792.5 1752.5,792.5C 1752.33,741.832 1752.5,691.166 1753,640.5C 1760.42,582.472 1791.25,542.639 1845.5,521C 1855.78,517.68 1866.11,515.18 1876.5,513.5 Z"/></g>
<g><path style="opacity:0.986" fill="#53575a" d="M 2021.5,513.5 C 2083.48,509.903 2130.32,534.569 2162,587.5C 2176.35,615.96 2181.02,645.96 2176,677.5C 2164.9,731.602 2133.4,768.102 2081.5,787C 2046.5,797.145 2012.16,795.312 1978.5,781.5C 1985.14,764.722 1992.47,748.222 2000.5,732C 2032.48,744.42 2062.48,740.753 2090.5,721C 2125.2,689.664 2132.37,652.83 2112,610.5C 2086.45,572.646 2051.62,560.146 2007.5,573C 1974.43,587.406 1955.93,612.573 1952,648.5C 1951.5,732.499 1951.33,816.499 1951.5,900.5C 1933.5,900.5 1915.5,900.5 1897.5,900.5C 1897.33,813.499 1897.5,726.499 1898,639.5C 1905.06,585.458 1933.22,546.958 1982.5,524C 1995.25,519.066 2008.25,515.566 2021.5,513.5 Z"/></g>
<g><path style="opacity:0.98" fill="#53575a" d="M 1480.5,554.5 C 1494.29,566.454 1507.29,579.287 1519.5,593C 1492.32,624.666 1488.16,659.166 1507,696.5C 1530.44,731.627 1562.94,744.794 1604.5,736C 1636.37,725.462 1656.54,703.962 1665,671.5C 1670.46,641.491 1662.96,615.325 1642.5,593C 1654.46,580.041 1666.79,567.374 1679.5,555C 1680.17,554.333 1680.83,554.333 1681.5,555C 1720.88,598.713 1731.05,648.546 1712,704.5C 1689.92,755.904 1651.08,785.404 1595.5,793C 1530.23,796.459 1482.73,769.292 1453,711.5C 1430.45,653.438 1439.62,601.105 1480.5,554.5 Z"/></g>
</svg>
